<svg width="300" height="230" fill="#fff" xmlns="http://www.w3.org/2000/svg" style="font-family: sans-serif;">
    <rect x="5" y="5" width="290" height="200" rx="4" stroke="#3399FF" stroke-width="1.45" stroke-linecap="round" stroke-dasharray="3 4.5"/>
    <rect x="95" y="194" width="120" height="20" rx="4" stroke="#3399FF" stroke-width="1.45" stroke-linecap="round" stroke-dasharray="3 4.5"/>
    <text x="100" y="209" fill="#3399FF" font-size="12">LAYOUT WRAPPER</text>

    <!-- Groupe de gauche, plus large -->
    <!-- Groupe top -->
    <rect x="10" y="10" width="180" height="30" rx="4" fill="#3399FF"/>
    <rect opacity=".25" x="15" y="15" width="170" height="20" rx="3.6" fill="#3399FF" stroke="#fff" stroke-width="1.45"/>
    <text x="20" y="29" fill="#fff" font-size="12">TOP</text>

    <rect x="10" y="50" width="180" height="30" rx="4" fill="#3399FF"/>
    <rect opacity=".25" x="15" y="55" width="170" height="20" rx="3.6" fill="#3399FF" stroke="#fff" stroke-width="1.45"/>
    <text x="20" y="69" fill="#fff" font-size="12">BEFORE CONTENT</text>

    <rect x="10" y="90" width="180" height="55" rx="4" fill="#3399FF"/>
    <rect opacity=".25" x="15" y="95" width="170" height="20" rx="3.6" fill="#3399FF" stroke="#fff" stroke-width="1.45"/>
    <text x="20" y="109" fill="#fff" font-size="12">CONTENT</text>
    <rect opacity=".25" x="15" y="120" width="150" height="20" rx="3.6" fill="#3399FF" stroke="#fff" stroke-width="1.45"/>

    <rect x="10" y="155" width="180" height="30" rx="4" fill="#3399FF"/>
    <rect opacity=".25" x="15" y="160" width="170" height="20" rx="3.6" fill="#3399FF" stroke="#fff" stroke-width="1.45"/>
    <text x="20" y="174" fill="#fff" font-size="12">AFTER CONTENT</text>


    <rect x="200" y="10" width="90" height="55" rx="4" fill="#3399FF"/>
    <rect opacity=".25" x="205" y="15" width="80" height="20" rx="3.6" fill="#3399FF" stroke="#fff" stroke-width="1.45"/>
    <text x="210" y="29" fill="#fff" font-size="12">SIDEBAR</text>
    <rect opacity=".25" x="205" y="40" width="60" height="20" rx="3.6" fill="#3399FF" stroke="#fff" stroke-width="1.45"/>
</svg>