<svg width="156" height="87" fill="none" xmlns="http://www.w3.org/2000/svg">
    <rect x="14" y="10" width="85" height="67" rx="4" fill="var(--theme--background)"/>
    <rect x="14" y="10" width="85" height="67" rx="4" stroke="var(--theme--primary)" stroke-width="1.45" stroke-linecap="round" stroke-dasharray="2.9 4.35"/>
    <rect opacity=".25" x="21" y="17" width="71" height="14" rx="3.6" fill="var(--theme--background)" stroke="var(--theme--primary)" stroke-width="1.45"/>
    <rect x="27" y="22" width="36" height="4" rx="1.45" fill="var(--theme--primary)" fill-opacity=".25"/>
    <rect x="67" y="22" width="14" height="4" rx="1.45" fill="var(--theme--primary)" fill-opacity=".25"/>
    <rect opacity=".25" x="21" y="37" width="71" height="14" rx="3.6" fill="var(--theme--background)" stroke="var(--theme--primary)" stroke-width="1.45"/>
    <rect x="27" y="43" width="14" height="4" rx="1.45" fill="var(--theme--primary)" fill-opacity=".25"/>
    <rect x="45" y="43" width="29" height="4" rx="1.45" fill="var(--theme--primary)" fill-opacity=".25"/>
    <rect opacity=".25" x="21" y="58" width="71" height="14" rx="3.6" fill="var(--theme--background)" stroke="var(--theme--primary)" stroke-width="1.45"/>
    <rect x="27" y="63" width="22" height="4" rx="1.45" fill="var(--theme--primary)" fill-opacity=".25"/>
    <rect x="52" y="63" width="22" height="4" rx="1.45" fill="var(--theme--primary)" fill-opacity=".25"/>

    <rect x="107" y="10" width="43" height="37" rx="4" fill="var(--theme--background)"/>
    <rect x="107" y="10" width="43" height="37" rx="4" stroke="var(--theme--primary)" stroke-width="1.45" stroke-linecap="round" stroke-dasharray="2.9 4.35"/>
    <rect opacity=".25" x="110" y="17" width="36" height="11" rx="3.6" fill="var(--theme--background)" stroke="var(--theme--primary)" stroke-width="1.45"/>
    <rect x="114" y="20" width="18" height="4" rx="1.45" fill="var(--theme--primary)" fill-opacity=".25"/>
    <rect opacity=".25" x="110" y="33" width="36" height="11" rx="3.6" fill="var(--theme--background)" stroke="var(--theme--primary)" stroke-width="1.45"/>
    <rect x="114" y="36" width="7" height="4" rx="1.45" fill="var(--theme--primary)" fill-opacity=".25"/>
</svg>